# xmcd
#
# Track frame offsets: 
#        150
#        24877
#        48287
#
# Disc length: 972 seconds
#
# Revision: 0
# Processed by: cddbd v1.5.2PL0 Copyright (c) Steve Scherf et al.
# Submitted via: ExactAudioCopy v1.0b3
#
DISCID=1603ca03
DTITLE=Hool's Hardcore Experience Intr.: Jeff and Schröder - Deutschland
DTITLE=lied
DYEAR=1900
DGENRE=
TTITLE0=Deutschlandlied (Zimmermann Mix)
TTITLE1=Deutschlandlied (1994er Remix)
TTITLE2=Hool's Hardcore Experience - Abba Abba
EXTD=
EXTT0=
EXTT1=
EXTT2=
PLAYORDER=
